<?xml version="1.0" encoding="utf-8"?>
<!-- Generator: Adobe Illustrator 19.0.0, SVG Export Plug-In . SVG Version: 6.00 Build 0)  -->
<svg version="1.1" id="Calque_1" xmlns="http://www.w3.org/2000/svg" xmlns:xlink="http://www.w3.org/1999/xlink" x="0px" y="0px"
	 viewBox="0 0 766.1 180.5" style="enable-background:new 0 0 766.1 180.5;" xml:space="preserve">
<style type="text/css">
	.st0{fill:#010202;}
</style>
<g>
	<g>
		<path class="st0" d="M117.9,168.3H101l-39.8-83c-1.4-2.5-2.5-5.1-3.9-7.9c-0.9-2.1-2.1-4.4-3.2-6.5l-2.3-5.1
			C52.6,77,52.8,78.9,52.8,86v82.3H14.2V14.1h51.6l43.3,89.2c3.7,8.3,7.2,16.2,8.8,20.6V168.3z M184,14.1h16.3v154.1h-38.6v-76
			c0-8.8,0.5-18.5,1.2-26.3L184,14.1z"/>
	</g>
</g>
<g>
	<path class="st0" d="M281.7,167.4l-9.2-50.8c-1-5.7-1.7-9.5-2-11.3c-0.6-2.8-1.1-5.7-1.5-8.7l-1.1-5.9c0.1,2.4,0.1,4.2,0.3,4.9
		l0.3,5.7c0.1,3.1,0.3,10.4,0.3,15.3v50.8h-15.4V74h24.8l5.2,31.1c1.1,6.3,2,13.2,2.9,23c1.3-11.1,1.7-14.7,3.1-23l5.2-31.1h25.1
		v93.4h-15.4v-48.6c0-6.3,0.4-21.4,0.8-28.1c-0.6,2.8-1,5-1.3,6.7c-1.4,7.8-2.1,12-3.6,20.4l-9.1,49.6H281.7z"/>
	<path class="st0" d="M332.7,119.1V114c0-12.6,5.5-17.9,18.6-17.9c6.7,0,11.5,1.5,14.3,4.5c2.7,2.8,3.5,6.7,3.5,15.3v51.7h-14v-4.8
		c-2.4,3.6-5.6,5.5-10.4,5.5c-9.4,0-13-5.2-13-19c0-14.3,1.8-18.2,10.4-23l7.1-3.8c4.3-2.5,5.5-3.9,5.5-7.7c0-4.1-1.4-6-4.2-6
		c-2.9,0-4.2,1.7-4.2,5.7v4.8H332.7z M350.7,135.1c-3.8,2.5-4.5,4.5-4.5,12.7c0,6.3,1.1,8.7,4.1,8.7s4.3-2.7,4.3-8.1v-16.1
		L350.7,135.1z"/>
	<path class="st0" d="M424.2,167.4h-15.4L405,158c-1.8-4.5-3.6-9.9-5-14c-0.8,2.8-2.4,7.4-4.6,14l-3.4,9.4h-15.3l16-37.2l-15.1-33.5
		h15.1l3.4,8.1c2.1,5.3,2.9,7.7,3.9,11.2c0.4-1.1,0.7-1.8,0.8-2.1c0.6-1.7,1.5-4.8,3.1-9.1l3.1-8.1h15.5L407.3,131L424.2,167.4z"/>
	<path class="st0" d="M473.2,167.4h-16.1V74h16.1V167.4z"/>
	<path class="st0" d="M500.5,167.4h-14.4V74h14.4V167.4z"/>
	<path class="st0" d="M526.7,167.4h-14.4V74h14.4V167.4z"/>
	<path class="st0" d="M578.2,167.4h-14v-5.9c-4.3,4.6-8.4,6.6-13.4,6.6c-4.2,0-7.8-1.8-9.7-4.9c-2.2-3.6-2.7-6.3-2.7-18.2V96.7h14.4
		v47.6c0,8.4,0.7,10.2,4.3,10.2c2.1,0,4.3-1.4,5.2-3.5c1-2.4,1.4-5.6,1.4-11.9V96.7h14.4V167.4z"/>
	<path class="st0" d="M611.7,119.1v-4.3c0-5.3-1.8-8-5.5-8c-3.2,0-5,2-5,5.3c0,2.4,1.1,4.5,3.9,7l13.3,12.5
		c5.9,5.5,7.4,9.4,7.4,18.2c0,6.4-1,10.4-3.4,13c-3.1,3.4-8.8,5.3-15.7,5.3c-6.3,0-11.5-1.5-14.8-4.5c-3.4-3.1-4.9-7.6-4.9-15.1
		v-8.3h13.6v7.4c0,6.7,1.8,9.7,6,9.7c3.8,0,5.7-2.7,5.7-8c0-3.2-1-5.3-3.9-8.1l-13.9-13.2c-5.3-5-7-8.8-7-15.4
		c0-10.9,6.4-16.7,18.8-16.7c12,0,18.3,5.9,18.3,17.1v6H611.7z"/>
	<path class="st0" d="M648.8,87.6h-14.4V74h14.4V87.6z M648.8,167.4h-14.4V96.7h14.4V167.4z"/>
	<path class="st0" d="M698.3,143.5c0,10.2-1,14.8-3.9,18.5c-3.1,4.1-8.5,6.2-15.3,6.2c-6.9,0-12.3-2.1-15.4-6.2
		c-2.9-3.6-3.9-8.3-3.9-18.5v-22.8c0-10.2,1-14.8,3.9-18.5c3.1-4.1,8.4-6.2,15.4-6.2c6.9,0,12.2,2.1,15.3,6.2
		c2.9,3.6,3.9,8.3,3.9,18.5V143.5z M674.3,145.3c0,4.6,0.1,6.4,0.7,8c0.6,2,2.2,3.2,4.2,3.2c1.8,0,3.5-1.3,4.1-3.2
		c0.6-1.5,0.7-3.4,0.7-8V119c0-4.6-0.1-6.6-0.7-8.1c-0.6-2-2.2-3.2-4.1-3.2c-2,0-3.6,1.3-4.2,3.2c-0.6,1.5-0.7,3.5-0.7,8.1V145.3z"
		/>
	<path class="st0" d="M723.3,96.7v6.6c4.5-5.2,8.3-7.3,13.4-7.3c3.9,0,7.3,1.5,9.2,4.2c2.1,2.8,2.8,6,2.8,12.5v54.7h-14.4v-47.2
		c0-8.7-0.8-10.6-4.5-10.6c-4.3,0-6.2,3.5-6.2,12.2v45.6h-14.4V96.7H723.3z"/>
</g>
</svg>
